<svg xmlns="http://www.w3.org/2000/svg" xmlns:xlink="http://www.w3.org/1999/xlink">
  <defs>
    <symbol viewBox="0 0 636.801 94.509" id="weatherwear" stroke-linecap="round" fill-rule="evenodd">
      <path
        d="M 122.843 51.626 A 3.129 3.129 0 0 0 121.993 51.155 Q 121.067 50.802 119.7 50.802 A 100.09 100.09 0 0 1 117.795 50.784 Q 112.083 50.675 107.7 49.902 A 108.9 108.9 0 0 0 108.628 47.177 Q 112.6 34.976 112.6 24.802 A 31.532 31.532 0 0 0 112.542 22.857 Q 112.132 16.227 108.85 12.202 A 11.978 11.978 0 0 0 103.421 8.346 A 14.32 14.32 0 0 0 98.7 7.602 Q 93.5 7.602 89.25 10.302 A 16.222 16.222 0 0 0 85.039 14.209 A 21.517 21.517 0 0 0 82.55 18.452 Q 80.1 23.902 80.1 31.802 Q 80.1 39.702 83.2 45.752 A 24.315 24.315 0 0 0 85.059 48.807 A 25.388 25.388 0 0 0 92.4 55.602 Q 89.874 61.17 87.081 65.795 A 68.612 68.612 0 0 1 81.6 73.652 A 40.436 40.436 0 0 1 79.92 75.594 Q 77.026 78.721 74.411 80.005 A 7.952 7.952 0 0 1 70.9 80.902 Q 66.8 80.902 64.65 77.452 A 11.771 11.771 0 0 1 64.553 77.292 Q 63.143 74.948 62.354 71.208 A 40.765 40.765 0 0 1 61.75 67.402 Q 61 60.802 61 49.702 Q 61 33.402 63.8 17.102 Q 63.939 16.479 63.981 15.522 A 20.747 20.747 0 0 0 64 14.602 A 9.142 9.142 0 0 0 63.977 13.935 Q 63.917 13.112 63.703 12.432 A 4.257 4.257 0 0 0 62.55 10.552 Q 61.508 9.581 59.614 9.308 A 11.346 11.346 0 0 0 58 9.202 A 14.531 14.531 0 0 0 57.148 9.226 Q 55.901 9.299 54.849 9.593 A 7.336 7.336 0 0 0 52.15 10.952 A 5.185 5.185 0 0 0 51.841 11.225 Q 50.51 12.497 49.748 14.969 A 18.97 18.97 0 0 0 49.2 17.302 A 323.495 323.495 0 0 1 48.215 22.817 Q 46.691 30.925 44.901 38.045 A 177.69 177.69 0 0 1 40.9 51.752 A 187.572 187.572 0 0 1 39.953 54.479 Q 37.055 62.611 34.139 68.264 A 52.881 52.881 0 0 1 31.05 73.552 Q 27.57 78.72 24.806 80.254 A 4.568 4.568 0 0 1 22.6 80.902 A 4.04 4.04 0 0 1 20.23 80.127 Q 17.951 78.524 16.4 73.602 Q 14.783 68.469 14.303 60.32 A 126.584 126.584 0 0 1 14.1 52.902 A 160.876 160.876 0 0 1 14.279 45.507 Q 14.833 33.497 17.1 18.002 A 96.681 96.681 0 0 0 17.166 17.326 Q 17.262 16.29 17.289 15.701 A 8.786 8.786 0 0 0 17.3 15.302 Q 17.3 11.802 15.65 10.502 Q 14.529 9.618 12.784 9.335 A 11.16 11.16 0 0 0 11 9.202 Q 7 9.202 5.15 11.152 Q 3.3 13.102 2.6 18.102 A 258.711 258.711 0 0 0 0.734 33.964 A 194.285 194.285 0 0 0 0 50.402 A 137.978 137.978 0 0 0 0.442 61.789 Q 0.943 67.821 2.011 72.897 A 55.712 55.712 0 0 0 4.9 82.552 A 34.957 34.957 0 0 0 5.574 84.091 Q 10.44 94.502 19.4 94.502 A 16.795 16.795 0 0 0 24.119 93.826 Q 27.457 92.854 30.639 90.484 A 32.28 32.28 0 0 0 35.45 86.002 A 37.194 37.194 0 0 0 35.794 85.609 Q 43.137 77.104 49 60.102 A 103.575 103.575 0 0 0 49.617 68.247 Q 50.809 78.37 54 85.152 A 21.217 21.217 0 0 0 56.518 89.297 A 12.993 12.993 0 0 0 67.2 94.502 Q 73.95 94.502 80.824 89.632 A 45.517 45.517 0 0 0 86.65 84.652 A 76.412 76.412 0 0 0 95.524 73.925 A 98.509 98.509 0 0 0 103.5 59.902 A 56.25 56.25 0 0 0 109.695 60.807 A 74.996 74.996 0 0 0 115.449 61.103 A 28.937 28.937 0 0 0 112.9 73.202 A 27.897 27.897 0 0 0 113.481 79.046 A 18.867 18.867 0 0 0 118.7 88.802 Q 124.5 94.502 135 94.502 Q 142.7 94.502 149.45 90.702 A 53.631 53.631 0 0 0 151.214 89.665 A 42.1 42.1 0 0 0 154.082 87.753 A 15.699 15.699 0 0 0 155.6 90.002 A 11.86 11.86 0 0 0 160.795 93.73 A 13.778 13.778 0 0 0 165.5 94.502 Q 173.4 94.502 178.6 86.102 A 16.672 16.672 0 0 0 179.622 88.404 A 12.716 12.716 0 0 0 182.75 92.252 A 11.7 11.7 0 0 0 183.183 92.589 A 9.221 9.221 0 0 0 188.8 94.502 A 10.999 10.999 0 0 0 190.845 94.307 Q 192.683 93.96 194.573 92.994 A 20.867 20.867 0 0 0 197.7 91.002 A 44.987 44.987 0 0 0 201.08 88.152 A 54.085 54.085 0 0 0 206.4 82.402 A 6.749 6.749 0 0 0 206.619 82.133 A 35.487 35.487 0 0 0 207.002 83.132 Q 209.634 89.421 214.739 92.231 A 20.157 20.157 0 0 0 224.6 94.502 A 24.839 24.839 0 0 0 225.825 94.472 A 20.322 20.322 0 0 0 236.3 91.102 A 38.566 38.566 0 0 0 239.75 88.508 A 45.062 45.062 0 0 0 240.123 88.188 A 29.169 29.169 0 0 0 240.253 89.459 Q 240.49 91.31 240.95 92.352 A 3.348 3.348 0 0 0 241.935 93.649 Q 242.558 94.143 243.454 94.35 A 6.409 6.409 0 0 0 244.9 94.502 A 12.7 12.7 0 0 0 246.251 94.432 Q 252.578 93.755 254.3 86.502 Q 255.8 80.402 258.2 74.902 Q 260.6 69.402 263 66.052 A 27.276 27.276 0 0 1 263.607 65.236 Q 265.57 62.702 266.7 62.702 A 1.452 1.452 0 0 1 266.76 62.703 Q 267.591 62.737 267.758 63.738 A 3.445 3.445 0 0 1 267.8 64.302 A 10.115 10.115 0 0 1 267.796 64.58 Q 267.745 66.438 267.038 70.263 A 135.129 135.129 0 0 1 266.5 73.002 A 187.798 187.798 0 0 0 266.303 74.033 Q 265.415 78.741 265.183 81.387 A 18.845 18.845 0 0 0 265.1 83.002 A 21.172 21.172 0 0 0 265.188 84.973 Q 265.351 86.708 265.813 88.138 A 9.508 9.508 0 0 0 267.7 91.552 Q 269.468 93.557 272.39 94.199 A 14.03 14.03 0 0 0 275.4 94.502 Q 281.6 94.502 286.45 91.102 A 46.106 46.106 0 0 0 290.942 87.497 A 59.545 59.545 0 0 0 292.02 86.489 A 18.867 18.867 0 0 0 294 88.802 Q 299.8 94.502 310.3 94.502 Q 318 94.502 324.75 90.702 A 53.631 53.631 0 0 0 326.514 89.665 A 42.1 42.1 0 0 0 329.903 87.368 A 32.647 32.647 0 0 0 330.001 87.872 A 16.809 16.809 0 0 0 330.75 90.502 A 8.457 8.457 0 0 0 331.491 91.99 Q 332.319 93.291 333.527 93.918 A 5.504 5.504 0 0 0 336.1 94.502 A 10.201 10.201 0 0 0 337.087 94.456 Q 339.442 94.227 340.65 92.852 A 5.867 5.867 0 0 0 341.301 91.928 Q 342.354 90.117 343.2 86.502 Q 344.7 80.402 347.1 74.902 A 70.092 70.092 0 0 1 348.322 72.247 Q 350.123 68.551 351.95 66.052 A 26.164 26.164 0 0 1 352.289 65.598 Q 353.845 63.566 354.995 62.959 A 1.962 1.962 0 0 1 355.9 62.702 A 1.452 1.452 0 0 1 355.96 62.703 Q 356.791 62.737 356.958 63.738 A 3.445 3.445 0 0 1 357 64.302 A 6.958 6.958 0 0 1 356.997 64.514 Q 356.974 65.271 356.8 67.002 Q 356.5 68.502 356.5 70.002 A 13.03 13.03 0 0 0 356.719 72.443 A 8.982 8.982 0 0 0 359.25 77.302 A 8.226 8.226 0 0 0 361.135 78.682 Q 362.496 79.412 364.237 79.738 A 16.655 16.655 0 0 0 367.3 80.002 Q 371.5 80.002 375.25 77.952 A 30.23 30.23 0 0 0 375.542 77.79 A 26.989 26.989 0 0 0 381.8 73.002 A 6.529 6.529 0 0 0 382.403 72.269 A 7.353 7.353 0 0 0 383.336 70.405 A 90.403 90.403 0 0 0 383.811 72.897 A 55.712 55.712 0 0 0 386.7 82.552 A 34.957 34.957 0 0 0 387.374 84.091 Q 392.24 94.502 401.2 94.502 A 16.795 16.795 0 0 0 405.919 93.826 Q 409.257 92.854 412.439 90.484 A 32.28 32.28 0 0 0 417.25 86.002 A 37.194 37.194 0 0 0 417.594 85.609 Q 424.937 77.104 430.8 60.102 A 103.575 103.575 0 0 0 431.417 68.247 Q 432.609 78.37 435.8 85.152 A 21.217 21.217 0 0 0 438.318 89.297 A 12.993 12.993 0 0 0 449 94.502 Q 455.75 94.502 462.624 89.632 A 45.517 45.517 0 0 0 468.45 84.652 A 76.412 76.412 0 0 0 477.324 73.925 A 98.509 98.509 0 0 0 485.3 59.902 A 56.25 56.25 0 0 0 491.495 60.807 A 74.996 74.996 0 0 0 497.249 61.103 A 28.937 28.937 0 0 0 494.7 73.202 A 27.897 27.897 0 0 0 495.281 79.046 A 18.867 18.867 0 0 0 500.5 88.802 Q 506.3 94.502 516.8 94.502 Q 524.5 94.502 531.25 90.702 A 53.631 53.631 0 0 0 533.014 89.665 A 42.1 42.1 0 0 0 535.882 87.753 A 15.699 15.699 0 0 0 537.4 90.002 A 11.86 11.86 0 0 0 542.595 93.73 A 13.778 13.778 0 0 0 547.3 94.502 Q 555.2 94.502 560.4 86.102 A 16.672 16.672 0 0 0 561.422 88.404 A 12.716 12.716 0 0 0 564.55 92.252 A 11.7 11.7 0 0 0 564.983 92.589 A 9.221 9.221 0 0 0 570.6 94.502 A 10.999 10.999 0 0 0 572.645 94.307 Q 574.483 93.96 576.373 92.994 A 20.867 20.867 0 0 0 579.5 91.002 A 44.987 44.987 0 0 0 582.88 88.152 A 54.085 54.085 0 0 0 583.03 88.011 A 16.809 16.809 0 0 0 583.75 90.502 A 8.457 8.457 0 0 0 584.491 91.99 Q 585.319 93.291 586.527 93.918 A 5.504 5.504 0 0 0 589.1 94.502 A 10.201 10.201 0 0 0 590.087 94.456 Q 592.442 94.227 593.65 92.852 A 5.867 5.867 0 0 0 594.301 91.928 Q 595.354 90.117 596.2 86.502 Q 597.7 80.402 600.1 74.902 A 70.092 70.092 0 0 1 601.322 72.247 Q 603.123 68.551 604.95 66.052 A 26.164 26.164 0 0 1 605.289 65.598 Q 606.845 63.566 607.995 62.959 A 1.962 1.962 0 0 1 608.9 62.702 A 1.452 1.452 0 0 1 608.96 62.703 Q 609.791 62.737 609.958 63.738 A 3.445 3.445 0 0 1 610 64.302 A 6.958 6.958 0 0 1 609.997 64.514 Q 609.974 65.271 609.8 67.002 Q 609.5 68.502 609.5 70.002 A 13.03 13.03 0 0 0 609.719 72.443 A 8.982 8.982 0 0 0 612.25 77.302 A 8.226 8.226 0 0 0 614.135 78.682 Q 615.496 79.412 617.237 79.738 A 16.655 16.655 0 0 0 620.3 80.002 Q 624.5 80.002 628.25 77.952 A 30.23 30.23 0 0 0 628.542 77.79 A 26.989 26.989 0 0 0 634.8 73.002 A 6.529 6.529 0 0 0 635.403 72.269 Q 636.226 71.107 636.564 69.556 A 11.042 11.042 0 0 0 636.8 67.202 Q 636.8 66.188 636.587 65.389 A 4.252 4.252 0 0 0 636.05 64.152 A 3.075 3.075 0 0 0 635.776 63.79 A 2.27 2.27 0 0 0 634 63.002 A 3.002 3.002 0 0 0 633.352 63.072 Q 632.297 63.305 631.3 64.302 Q 628.207 67.395 625.904 68.314 A 4.895 4.895 0 0 1 624.1 68.702 A 3.465 3.465 0 0 1 624 68.7 Q 621.6 68.63 621.6 65.202 A 5.629 5.629 0 0 1 621.636 64.651 Q 621.768 63.364 622.4 60.202 Q 623.3 55.202 623.3 53.902 A 9.576 9.576 0 0 0 623.023 51.494 Q 622.257 48.55 619.373 47.724 A 9.357 9.357 0 0 0 616.8 47.402 A 10.337 10.337 0 0 0 615.066 47.553 Q 612.488 47.991 609.55 49.702 A 18.98 18.98 0 0 0 607.229 51.311 Q 604.402 53.58 601.5 57.402 A 39.284 39.284 0 0 0 599.852 59.751 Q 596.724 64.565 594.1 71.402 A 103.09 103.09 0 0 1 594.37 68.788 Q 594.688 66.064 595.1 64.002 A 111.739 111.739 0 0 1 595.515 62.029 Q 596.013 59.752 596.7 57.002 A 131.293 131.293 0 0 0 597.205 55.062 Q 597.933 52.167 598.129 50.693 A 7.037 7.037 0 0 0 598.2 49.802 Q 598.2 49.14 598.022 48.679 A 1.541 1.541 0 0 0 597.4 47.902 A 2.213 2.213 0 0 0 596.984 47.703 Q 596.154 47.402 594.6 47.402 A 17.019 17.019 0 0 0 592.79 47.493 Q 591.697 47.61 590.788 47.877 A 7.202 7.202 0 0 0 588.85 48.752 A 6.654 6.654 0 0 0 586.737 51.045 A 9.683 9.683 0 0 0 585.9 53.002 A 76.942 76.942 0 0 0 585.345 54.838 A 81.944 81.944 0 0 0 582.212 75.899 A 124.926 124.926 0 0 1 580.851 77.427 Q 578.788 79.702 577.3 81.052 Q 574.6 83.502 572.7 83.502 A 3.041 3.041 0 0 1 572.479 83.494 A 2.394 2.394 0 0 1 570.75 82.602 A 2.866 2.866 0 0 1 570.549 82.328 Q 570.231 81.839 570.097 81.202 A 4.872 4.872 0 0 1 570 80.202 A 19.067 19.067 0 0 1 570.003 79.882 Q 570.061 76.452 571.321 69.361 A 245.902 245.902 0 0 1 572.3 64.202 A 306.979 306.979 0 0 0 572.487 63.21 Q 573.8 56.167 573.8 54.202 A 4.851 4.851 0 0 0 573.798 54.06 Q 573.701 50.702 568.9 50.702 Q 566.6 50.702 564.5 51.102 A 16.337 16.337 0 0 0 564.333 50.429 Q 563.88 48.765 563.25 48.052 A 1.767 1.767 0 0 0 562.869 47.731 Q 562.036 47.202 560.3 47.202 A 21.082 21.082 0 0 0 554.099 48.126 A 24.014 24.014 0 0 0 547.25 51.552 Q 541.1 55.902 537.4 63.052 A 32.51 32.51 0 0 0 533.705 77.554 A 33.852 33.852 0 0 1 528.15 81.352 A 34.393 34.393 0 0 1 525.449 82.688 Q 521.315 84.502 517.9 84.502 A 19.888 19.888 0 0 1 516.924 84.478 Q 515.053 84.386 513.535 83.933 A 8.254 8.254 0 0 1 508.4 79.902 Q 516.156 77.996 520.952 75.204 A 20.43 20.43 0 0 0 525.15 72.052 Q 530.1 67.102 530.1 60.202 A 16.681 16.681 0 0 0 529.792 56.914 A 11.46 11.46 0 0 0 526.6 50.852 Q 523.1 47.402 517.3 47.402 Q 510.8 47.402 505.65 50.902 A 23.024 23.024 0 0 0 504.643 51.626 A 3.129 3.129 0 0 0 503.793 51.155 Q 502.867 50.802 501.5 50.802 A 100.09 100.09 0 0 1 499.595 50.784 Q 493.883 50.675 489.5 49.902 A 108.9 108.9 0 0 0 490.428 47.177 Q 494.4 34.976 494.4 24.802 A 31.532 31.532 0 0 0 494.342 22.857 Q 493.932 16.227 490.65 12.202 A 11.978 11.978 0 0 0 485.221 8.346 A 14.32 14.32 0 0 0 480.5 7.602 Q 475.3 7.602 471.05 10.302 A 16.222 16.222 0 0 0 466.839 14.209 A 21.517 21.517 0 0 0 464.35 18.452 Q 461.9 23.902 461.9 31.802 Q 461.9 39.702 465 45.752 A 24.315 24.315 0 0 0 466.859 48.807 A 25.388 25.388 0 0 0 474.2 55.602 Q 471.674 61.17 468.881 65.795 A 68.612 68.612 0 0 1 463.4 73.652 A 40.436 40.436 0 0 1 461.72 75.594 Q 458.826 78.721 456.211 80.005 A 7.952 7.952 0 0 1 452.7 80.902 Q 448.6 80.902 446.45 77.452 A 11.771 11.771 0 0 1 446.353 77.292 Q 444.943 74.948 444.154 71.208 A 40.765 40.765 0 0 1 443.55 67.402 Q 442.8 60.802 442.8 49.702 Q 442.8 33.402 445.6 17.102 Q 445.739 16.479 445.781 15.522 A 20.747 20.747 0 0 0 445.8 14.602 A 9.142 9.142 0 0 0 445.777 13.935 Q 445.717 13.112 445.503 12.432 A 4.257 4.257 0 0 0 444.35 10.552 Q 443.308 9.581 441.414 9.308 A 11.346 11.346 0 0 0 439.8 9.202 A 14.531 14.531 0 0 0 438.948 9.226 Q 437.701 9.299 436.649 9.593 A 7.336 7.336 0 0 0 433.95 10.952 A 5.185 5.185 0 0 0 433.641 11.225 Q 432.31 12.497 431.548 14.969 A 18.97 18.97 0 0 0 431 17.302 A 323.495 323.495 0 0 1 430.015 22.817 Q 428.491 30.925 426.701 38.045 A 177.69 177.69 0 0 1 422.7 51.752 A 187.572 187.572 0 0 1 421.753 54.479 Q 418.855 62.611 415.939 68.264 A 52.881 52.881 0 0 1 412.85 73.552 Q 409.37 78.72 406.606 80.254 A 4.568 4.568 0 0 1 404.4 80.902 A 4.04 4.04 0 0 1 402.03 80.127 Q 399.751 78.524 398.2 73.602 Q 396.583 68.469 396.103 60.32 A 126.584 126.584 0 0 1 395.9 52.902 A 160.876 160.876 0 0 1 396.079 45.507 Q 396.633 33.497 398.9 18.002 A 96.681 96.681 0 0 0 398.966 17.326 Q 399.062 16.29 399.089 15.701 A 8.786 8.786 0 0 0 399.1 15.302 Q 399.1 11.802 397.45 10.502 Q 396.329 9.618 394.584 9.335 A 11.16 11.16 0 0 0 392.8 9.202 Q 388.8 9.202 386.95 11.152 Q 385.1 13.102 384.4 18.102 A 258.711 258.711 0 0 0 382.534 33.964 A 194.285 194.285 0 0 0 381.8 50.402 A 137.978 137.978 0 0 0 382.242 61.789 A 90.403 90.403 0 0 0 382.386 63.432 A 2.27 2.27 0 0 0 381 63.002 A 3.002 3.002 0 0 0 380.352 63.072 Q 379.297 63.305 378.3 64.302 Q 375.207 67.395 372.904 68.314 A 4.895 4.895 0 0 1 371.1 68.702 A 3.465 3.465 0 0 1 371 68.7 Q 368.6 68.63 368.6 65.202 A 5.629 5.629 0 0 1 368.636 64.651 Q 368.768 63.364 369.4 60.202 Q 370.3 55.202 370.3 53.902 A 9.576 9.576 0 0 0 370.023 51.494 Q 369.257 48.55 366.373 47.724 A 9.357 9.357 0 0 0 363.8 47.402 A 10.337 10.337 0 0 0 362.066 47.553 Q 359.488 47.991 356.55 49.702 A 18.98 18.98 0 0 0 354.229 51.311 Q 351.402 53.58 348.5 57.402 A 39.284 39.284 0 0 0 346.852 59.751 Q 343.724 64.565 341.1 71.402 A 103.09 103.09 0 0 1 341.37 68.788 Q 341.688 66.064 342.1 64.002 A 111.739 111.739 0 0 1 342.515 62.029 Q 343.013 59.752 343.7 57.002 A 131.293 131.293 0 0 0 344.205 55.062 Q 344.933 52.167 345.129 50.693 A 7.037 7.037 0 0 0 345.2 49.802 Q 345.2 49.14 345.022 48.679 A 1.541 1.541 0 0 0 344.4 47.902 A 2.213 2.213 0 0 0 343.984 47.703 Q 343.154 47.402 341.6 47.402 A 17.019 17.019 0 0 0 339.79 47.493 Q 338.697 47.61 337.788 47.877 A 7.202 7.202 0 0 0 335.85 48.752 A 6.654 6.654 0 0 0 333.737 51.045 A 9.683 9.683 0 0 0 332.9 53.002 A 76.942 76.942 0 0 0 332.345 54.838 A 81.944 81.944 0 0 0 329.215 75.72 A 33.852 33.852 0 0 1 321.65 81.352 A 34.393 34.393 0 0 1 318.949 82.688 Q 314.815 84.502 311.4 84.502 A 19.888 19.888 0 0 1 310.424 84.478 Q 308.553 84.386 307.035 83.933 A 8.254 8.254 0 0 1 301.9 79.902 Q 309.656 77.996 314.452 75.204 A 20.43 20.43 0 0 0 318.65 72.052 Q 323.6 67.102 323.6 60.202 A 16.681 16.681 0 0 0 323.292 56.914 A 11.46 11.46 0 0 0 320.1 50.852 Q 316.6 47.402 310.8 47.402 Q 304.3 47.402 299.15 50.902 Q 294 54.402 291.1 60.352 Q 288.2 66.302 288.2 73.202 A 27.897 27.897 0 0 0 288.501 77.471 A 69.506 69.506 0 0 1 286.644 79.432 A 37.373 37.373 0 0 1 284.95 81.052 A 18.563 18.563 0 0 1 284.386 81.535 Q 282.911 82.747 281.664 83.212 A 4.196 4.196 0 0 1 280.2 83.502 A 4.066 4.066 0 0 1 280.072 83.5 Q 277.865 83.43 277.416 80.937 A 8.127 8.127 0 0 1 277.3 79.502 A 12.459 12.459 0 0 1 277.338 78.601 Q 277.509 76.275 278.46 71.525 A 209.257 209.257 0 0 1 279.2 68.002 Q 280.868 60.272 281.271 56.16 A 23.598 23.598 0 0 0 281.4 53.902 A 9.576 9.576 0 0 0 281.123 51.494 Q 280.357 48.55 277.473 47.724 A 9.357 9.357 0 0 0 274.9 47.402 A 10.337 10.337 0 0 0 273.166 47.553 Q 270.588 47.991 267.65 49.702 A 18.938 18.938 0 0 0 265.374 51.274 Q 263.905 52.446 262.423 54.034 A 42.08 42.08 0 0 0 259.65 57.352 Q 257.119 60.695 254.881 65.27 A 76.502 76.502 0 0 0 252.3 71.202 A 201.525 201.525 0 0 1 252.301 71.03 A 185.598 185.598 0 0 1 252.6 60.502 A 212.556 212.556 0 0 0 260.532 51.379 Q 264.099 47.014 266.87 43.042 A 84.279 84.279 0 0 0 271.8 35.152 A 53.297 53.297 0 0 0 275.728 26.13 A 38.593 38.593 0 0 0 277.7 14.202 A 26.56 26.56 0 0 0 277.68 13.144 Q 277.59 10.888 277.11 8.954 A 14.357 14.357 0 0 0 274.85 3.952 A 11.617 11.617 0 0 0 274.014 2.919 A 8.587 8.587 0 0 0 267.4 0.002 A 12.656 12.656 0 0 0 260.04 2.38 Q 255.985 5.197 252.65 11.352 A 68.055 68.055 0 0 0 250.891 14.839 Q 248.35 20.247 246.405 26.716 A 123.711 123.711 0 0 0 243.35 39.402 Q 240.2 56.102 240.2 71.502 L 240.153 75.291 A 92.09 92.09 0 0 1 238.973 76.553 Q 237.664 77.923 236.48 79.023 A 35.701 35.701 0 0 1 234.3 80.902 Q 231 83.502 226.7 83.502 A 11.441 11.441 0 0 1 224.665 83.328 A 7.985 7.985 0 0 1 218.95 79.302 Q 216.5 75.102 216.5 64.702 A 101.939 101.939 0 0 1 216.511 63.268 Q 216.547 60.73 216.7 56.902 L 228.9 56.902 Q 240.2 56.902 240.2 50.002 Q 240.2 48.747 239.895 48.016 A 1.879 1.879 0 0 0 239.5 47.402 Q 238.995 46.896 238.019 46.755 A 5.768 5.768 0 0 0 237.2 46.702 L 226 46.702 A 47.53 47.53 0 0 0 229.573 43.199 A 33.828 33.828 0 0 0 239 19.702 A 25.393 25.393 0 0 0 238.993 19.073 Q 238.939 16.896 238.508 15.017 A 14.264 14.264 0 0 0 236.6 10.402 A 10.433 10.433 0 0 0 236.205 9.834 Q 233.865 6.702 230 6.702 A 11.751 11.751 0 0 0 227.727 6.922 Q 225.121 7.435 222.68 9.139 A 20.38 20.38 0 0 0 219.35 12.102 Q 216.392 15.329 213.952 19.878 A 59.1 59.1 0 0 0 210.9 26.602 Q 207.4 35.702 205.7 46.702 L 200 46.702 A 6.292 6.292 0 0 0 199.189 46.752 Q 196.328 47.124 195.686 50.258 A 10.231 10.231 0 0 0 195.5 52.302 A 8.767 8.767 0 0 0 195.579 53.514 Q 195.787 55.002 196.55 55.802 Q 197.6 56.902 200.6 56.902 L 204.5 56.902 Q 204.2 61.402 204.2 65.802 A 63.566 63.566 0 0 0 204.461 71.882 A 3.137 3.137 0 0 0 203.641 72.319 A 4.764 4.764 0 0 0 202.8 73.102 A 181.098 181.098 0 0 1 201.305 74.868 Q 197.746 79.014 195.5 81.052 Q 192.8 83.502 190.9 83.502 A 3.041 3.041 0 0 1 190.679 83.494 A 2.394 2.394 0 0 1 188.95 82.602 A 2.866 2.866 0 0 1 188.749 82.328 Q 188.431 81.839 188.297 81.202 A 4.872 4.872 0 0 1 188.2 80.202 A 19.067 19.067 0 0 1 188.203 79.882 Q 188.261 76.452 189.521 69.361 A 245.902 245.902 0 0 1 190.5 64.202 A 306.979 306.979 0 0 0 190.687 63.21 Q 192 56.167 192 54.202 A 4.851 4.851 0 0 0 191.998 54.06 Q 191.901 50.702 187.1 50.702 Q 184.8 50.702 182.7 51.102 A 16.337 16.337 0 0 0 182.533 50.429 Q 182.08 48.765 181.45 48.052 A 1.767 1.767 0 0 0 181.069 47.731 Q 180.236 47.202 178.5 47.202 A 21.082 21.082 0 0 0 172.299 48.126 A 24.014 24.014 0 0 0 165.45 51.552 Q 159.3 55.902 155.6 63.052 A 32.51 32.51 0 0 0 151.905 77.554 A 33.852 33.852 0 0 1 146.35 81.352 A 34.393 34.393 0 0 1 143.649 82.688 Q 139.515 84.502 136.1 84.502 A 19.888 19.888 0 0 1 135.124 84.478 Q 133.253 84.386 131.735 83.933 A 8.254 8.254 0 0 1 126.6 79.902 Q 134.356 77.996 139.152 75.204 A 20.43 20.43 0 0 0 143.35 72.052 Q 148.3 67.102 148.3 60.202 A 16.681 16.681 0 0 0 147.992 56.914 A 11.46 11.46 0 0 0 144.8 50.852 Q 141.3 47.402 135.5 47.402 Q 129 47.402 123.85 50.902 A 23.024 23.024 0 0 0 122.843 51.626 Z M 265.3 9.902 A 1.743 1.743 0 0 0 264.256 10.309 Q 262.882 11.35 261.3 15.052 A 52.485 52.485 0 0 0 259.94 18.622 Q 258.508 22.797 257.141 28.566 A 164.874 164.874 0 0 0 257.05 28.952 A 170.538 170.538 0 0 0 254.831 40.191 A 211.625 211.625 0 0 0 253.7 48.002 Q 259.9 40.702 263.95 32.102 A 50.219 50.219 0 0 0 266.418 25.877 Q 268 20.877 268 16.502 Q 268 13.539 267.4 11.862 A 5.938 5.938 0 0 0 267.3 11.602 A 4.29 4.29 0 0 0 266.92 10.868 Q 266.67 10.49 266.368 10.26 A 1.715 1.715 0 0 0 265.3 9.902 Z M 558 74.902 L 561.7 56.502 A 11.707 11.707 0 0 0 555.19 58.69 A 15.265 15.265 0 0 0 553.95 59.652 A 19.709 19.709 0 0 0 549.835 64.63 A 25.263 25.263 0 0 0 548.3 67.702 Q 546.2 72.702 546.2 78.302 A 12.33 12.33 0 0 0 546.299 79.919 Q 546.55 81.807 547.435 82.883 A 3.841 3.841 0 0 0 547.45 82.902 A 4.086 4.086 0 0 0 550.236 84.365 A 5.852 5.852 0 0 0 550.9 84.402 Q 553.1 84.402 555.1 81.802 Q 557.1 79.202 558 74.902 Z M 176.2 74.902 L 179.9 56.502 A 11.707 11.707 0 0 0 173.39 58.69 A 15.265 15.265 0 0 0 172.15 59.652 A 19.709 19.709 0 0 0 168.035 64.63 A 25.263 25.263 0 0 0 166.5 67.702 Q 164.4 72.702 164.4 78.302 A 12.33 12.33 0 0 0 164.499 79.919 Q 164.75 81.807 165.635 82.883 A 3.841 3.841 0 0 0 165.65 82.902 A 4.086 4.086 0 0 0 168.436 84.365 A 5.852 5.852 0 0 0 169.1 84.402 Q 171.3 84.402 173.3 81.802 Q 175.3 79.202 176.2 74.902 Z M 227.3 16.302 A 1.619 1.619 0 0 0 226.385 16.628 Q 225.381 17.32 224.24 19.484 A 23.496 23.496 0 0 0 223.95 20.052 Q 222.1 23.802 220.45 30.452 Q 218.8 37.102 217.7 45.202 A 36.677 36.677 0 0 0 223.667 38.705 A 31.376 31.376 0 0 0 226.55 33.752 A 37.252 37.252 0 0 0 228.348 29.151 Q 229.138 26.615 229.386 24.29 A 19.652 19.652 0 0 0 229.5 22.202 Q 229.5 17.648 228.19 16.609 A 1.392 1.392 0 0 0 227.3 16.302 Z M 90.2 31.102 A 24.114 24.114 0 0 0 90.816 36.729 A 15.052 15.052 0 0 0 96.5 45.602 Q 100.4 34.402 100.4 27.102 A 25.559 25.559 0 0 0 100.318 24.973 Q 100.142 22.877 99.59 21.55 A 5.578 5.578 0 0 0 99.3 20.952 A 4.73 4.73 0 0 0 98.577 19.966 A 3.063 3.063 0 0 0 96.3 19.002 Q 93.6 19.002 91.9 22.152 A 11.914 11.914 0 0 0 90.898 24.758 Q 90.2 27.386 90.2 31.102 Z M 472 31.102 A 24.114 24.114 0 0 0 472.616 36.729 A 15.052 15.052 0 0 0 478.3 45.602 Q 482.2 34.402 482.2 27.102 A 25.559 25.559 0 0 0 482.118 24.973 Q 481.942 22.877 481.39 21.55 A 5.578 5.578 0 0 0 481.1 20.952 A 4.73 4.73 0 0 0 480.377 19.966 A 3.063 3.063 0 0 0 478.1 19.002 Q 475.4 19.002 473.7 22.152 A 11.914 11.914 0 0 0 472.698 24.758 Q 472 27.386 472 31.102 Z M 125 71.902 L 125 72.102 A 31.232 31.232 0 0 0 129.035 70.87 Q 131.081 70.08 132.704 69.053 A 15.789 15.789 0 0 0 134.3 67.902 A 10.841 10.841 0 0 0 136.236 65.87 A 7.5 7.5 0 0 0 137.7 61.402 A 5.579 5.579 0 0 0 137.554 60.085 A 3.877 3.877 0 0 0 136.65 58.352 A 3.462 3.462 0 0 0 134.552 57.257 A 4.943 4.943 0 0 0 133.8 57.202 A 6.081 6.081 0 0 0 129.625 58.881 Q 128.507 59.889 127.55 61.502 Q 125 65.802 125 71.902 Z M 300.3 71.902 L 300.3 72.102 A 31.232 31.232 0 0 0 304.335 70.87 Q 306.381 70.08 308.004 69.053 A 15.789 15.789 0 0 0 309.6 67.902 A 10.841 10.841 0 0 0 311.536 65.87 A 7.5 7.5 0 0 0 313 61.402 A 5.579 5.579 0 0 0 312.854 60.085 A 3.877 3.877 0 0 0 311.95 58.352 A 3.462 3.462 0 0 0 309.852 57.257 A 4.943 4.943 0 0 0 309.1 57.202 A 6.081 6.081 0 0 0 304.925 58.881 Q 303.807 59.889 302.85 61.502 Q 300.3 65.802 300.3 71.902 Z M 506.8 71.902 L 506.8 72.102 A 31.232 31.232 0 0 0 510.835 70.87 Q 512.881 70.08 514.504 69.053 A 15.789 15.789 0 0 0 516.1 67.902 A 10.841 10.841 0 0 0 518.036 65.87 A 7.5 7.5 0 0 0 519.5 61.402 A 5.579 5.579 0 0 0 519.354 60.085 A 3.877 3.877 0 0 0 518.45 58.352 A 3.462 3.462 0 0 0 516.352 57.257 A 4.943 4.943 0 0 0 515.6 57.202 A 6.081 6.081 0 0 0 511.425 58.881 Q 510.307 59.889 509.35 61.502 Q 506.8 65.802 506.8 71.902 Z"
        vector-effect="non-scaling-stroke" />
    </symbol>
    <symbol id="weather-app" viewBox="0 0 2048 2048">
      <g>
        <path
          d="M628.568 542.612l790.864 0c23.3398,0 44.537,9.52678 59.8831,24.8717 15.3449,15.3449 24.8717,36.5422 24.8717,59.8819l0 793.27c0,23.3386 -9.52678,44.5359 -24.8717,59.8808 -15.3461,15.3449 -36.5433,24.8717 -59.8831,24.8717l-790.864 0c-23.3398,0 -44.537,-9.52678 -59.8831,-24.8717 -15.3449,-15.3449 -24.8717,-36.5422 -24.8717,-59.8808l0 -793.27c0,-23.3398 9.52678,-44.537 24.8717,-59.8819 15.3461,-15.3449 36.5433,-24.8717 59.8831,-24.8717zm790.864 64.0016l-790.864 0c-5.67402,0 -10.8567,2.34449 -14.6327,6.12048 -3.77481,3.77481 -6.12048,8.95749 -6.12048,14.6315l0 793.27c0,5.67284 2.34567,10.8555 6.12048,14.6303 3.77599,3.77599 8.95867,6.12048 14.6327,6.12048l790.864 0c5.67402,0 10.8567,-2.34449 14.6327,-6.12048 3.77481,-3.77481 6.12048,-8.95749 6.12048,-14.6303l0 -793.27c0,-5.67402 -2.34567,-10.8567 -6.12048,-14.6315 -3.77599,-3.77599 -8.95867,-6.12048 -14.6327,-6.12048z" />
        <path
          d="M1485.49 915.172l22.402 0c17.6728,0 32.0008,14.328 32.0008,32.0008l0 153.654c0,17.6728 -14.328,32.0008 -32.0008,32.0008l-22.402 0c-17.6728,0 -32.0008,-14.328 -32.0008,-32.0008l0 -153.654c0,-17.6728 14.328,-32.0008 32.0008,-32.0008z" />
        <path
          d="M540.113 915.172l22.402 0c17.6728,0 32.0008,14.328 32.0008,32.0008l0 153.654c0,17.6728 -14.328,32.0008 -32.0008,32.0008l-22.402 0c-17.6728,0 -32.0008,-14.328 -32.0008,-32.0008l0 -153.654c0,-17.6728 14.328,-32.0008 32.0008,-32.0008z" />
        <path
          d="M640.77 543.611c-17.1201,4.28032 -27.5303,21.6307 -23.25,38.7508 4.28032,17.1201 21.6307,27.5303 38.7508,23.25 85.389,-21.3331 94.982,-92.1343 104.721,-164.025 8.43308,-62.2583 17.0315,-125.705 110.213,-121.421l-0.00472441 0.0933072c0.498426,0.0236221 0.994489,0.0330709 1.48701,0.034252l0 0.0011811 0.159449 0 151.153 0 151.312 0c1.22362,0 2.43071,-0.0720473 3.6189,-0.205512 91.1646,-3.21378 99.7087,59.7213 108.077,121.498 9.73938,71.8902 19.3323,142.691 104.721,164.025 17.1201,4.28032 34.4705,-6.12993 38.7508,-23.25 4.28032,-17.1201 -6.12993,-34.4705 -23.25,-38.7508 -43.4693,-10.8602 -50.1697,-60.3119 -56.9717,-110.523 -12.2528,-90.4489 -24.7642,-182.597 -173.668,-176.767 -0.424016,-0.0165354 -0.849213,-0.0271654 -1.27795,-0.0271654l-151.312 0 -151.312 0 0 0.0744095c-150.118,-6.41221 -162.658,86.0115 -174.946,176.72 -6.80197,50.2111 -13.5024,99.6627 -56.9717,110.523z" />
        <path
          d="M656.274 1442.39c-17.1201,-4.28032 -34.4705,6.12993 -38.7508,23.25 -4.28032,17.1201 6.12993,34.4705 23.25,38.7508 43.4681,10.8602 50.1697,60.3107 56.9705,110.522 12.2882,90.7087 24.8292,183.134 174.947,176.721l0 0.0744095 151.311 0 151.312 0c0.42874,0 0.853938,-0.0106299 1.27795,-0.0271654 148.904,5.82993 161.415,-86.3186 173.668,-176.767 6.80197,-50.2111 13.5024,-99.6627 56.9717,-110.523 17.1201,-4.28032 27.5303,-21.6307 23.25,-38.7508 -4.28032,-17.1201 -21.6307,-27.5303 -38.7508,-23.25 -85.389,21.3331 -94.982,92.1343 -104.721,164.025 -8.36812,61.7764 -16.9122,124.712 -108.077,121.498 -1.18819,-0.133465 -2.39528,-0.205512 -3.6189,-0.205512l-151.312 0 -151.152 0 -0.159449 0 0 0.0011811c-0.49252,0.0011811 -0.988583,0.0106299 -1.48701,0.034252l0.00472441 0.0933072c-93.182,4.28386 -101.782,-59.1638 -110.215,-121.422 -9.7382,-71.8902 -19.3323,-142.69 -104.72,-164.023z" />
        <path
          d="M1133.72 1216c29.0374,0 55.3252,-11.7685 74.3505,-30.7925 19.024,-19.0252 30.7925,-45.313 30.7925,-74.3505 0,-29.0374 -11.7685,-55.3252 -30.7925,-74.3505 -19.0252,-19.024 -45.313,-30.7925 -74.3505,-30.7925 -5.19095,0 -9.64607,0.244488 -13.376,0.715749 -4.48465,0.56693 -8.84646,1.40433 -13.0642,2.48858l0.034252 0.131102c-17.1118,4.41733 -34.5662,-5.87245 -38.9835,-22.9843 -0.529134,-2.04803 -0.844489,-4.10197 -0.964961,-6.13701 -3.30236,-25.7209 -15.8894,-48.5315 -34.2874,-64.9548 -18.4937,-16.5071 -43.0217,-26.5429 -70.0288,-26.5429 -26.8512,0 -51.3213,10.0217 -69.8611,26.5181 -18.8032,16.7291 -31.5638,40.0548 -34.604,66.2977l-31.7504 -3.62481 31.787 3.68268c-1.67953,14.4969 -12.8032,25.6028 -26.5122,27.887 -22.213,5.94331 -41.589,19.0961 -55.5107,36.8386 -13.9736,17.8099 -22.3087,40.3146 -22.3087,64.8272 0,29.0374 11.7685,55.3252 30.7925,74.3505 19.0252,19.024 45.313,30.7925 74.3505,30.7925l274.288 0zm119.601 14.4579c-30.6095,30.6083 -72.8977,49.5437 -119.601,49.5437l0 -64.0016c17.6728,0 32.0008,14.328 32.0008,32.0008 0,17.6728 -14.328,32.0008 -32.0008,32.0008l-274.288 0c-46.7032,0 -88.9914,-18.9354 -119.601,-49.5437 -30.6083,-30.6095 -49.5437,-72.8977 -49.5437,-119.601 0,-39.3142 13.4717,-75.541 36.0591,-104.328 18.6685,-23.791 43.6713,-42.4583 72.5209,-53.5182 8.31142,-33.7406 26.7166,-63.4772 51.8197,-85.8119 29.9032,-26.6055 69.2646,-42.7701 112.362,-42.7701 43.1008,0 82.5379,16.2732 112.53,43.0453 22.2437,19.8555 39.2079,45.5008 48.5209,74.5642 3.32599,-0.216142 6.53504,-0.325985 9.62009,-0.325985 46.7032,0 88.9914,18.9354 119.601,49.5437 30.6095,30.6107 49.5437,72.8977 49.5437,119.601 0,46.7032 -18.9354,88.9914 -49.5437,119.601z" />
        <path
          d="M1008.24 861.354c-8.83583,15.2563 -3.63189,34.7894 11.6244,43.6252 15.2563,8.83583 34.7894,3.63189 43.6252,-11.6244 10.9158,-18.7536 26.5618,-34.3488 45.267,-45.1134 17.9504,-10.3299 38.9504,-16.2414 61.526,-16.2414 34.0878,0 64.9465,13.8154 87.28,36.1488 22.3335,22.3335 36.1488,53.1922 36.1488,87.28 0,19.3748 -4.38071,37.6004 -12.1902,53.739 -8.2004,16.9429 -20.0752,31.6866 -34.5544,43.1563 -13.8071,10.9075 -16.1575,30.9437 -5.25,44.7508 10.9075,13.8071 30.9437,16.1575 44.7508,5.25 22.1398,-17.5382 40.2012,-39.8847 52.5544,-65.406 11.9752,-24.7453 18.691,-52.3996 18.691,-81.4902 0,-51.7536 -20.9799,-98.6127 -54.9,-132.53 -33.9177,-33.9201 -80.7768,-54.9 -132.53,-54.9 -33.7878,0 -65.6504,9.09568 -93.2764,24.9933 -28.513,16.4091 -52.2815,40.0406 -68.7662,68.3623z" />
      </g>
    </symbol>
  </defs>
</svg>
